<?xml version="1.0" standalone="no"?>
<!DOCTYPE svg PUBLIC "-//W3C//DTD SVG 20010904//EN"
 "http://www.w3.org/TR/2001/REC-SVG-20010904/DTD/svg10.dtd">
<svg version="1.0" xmlns="http://www.w3.org/2000/svg"
 width="480.000000pt" height="480.000000pt" viewBox="0 0 480.000000 480.000000"
 preserveAspectRatio="xMidYMid meet">
<metadata>
Created by potrace 1.14, written by Peter Selinger 2001-2017
</metadata>
<g transform="translate(0.000000,480.000000) scale(0.100000,-0.100000)"
fill="#000000" stroke="none">
<path d="M3110 4189 c-153 -39 -268 -93 -370 -171 -206 -159 -337 -395 -338
-612 0 -108 1 -109 72 -103 118 12 207 42 315 107 236 141 408 427 409 678 0
118 -4 123 -88 101z"/>
<path d="M1685 3285 c-180 -39 -338 -127 -477 -267 -159 -159 -238 -318 -283
-565 -14 -79 -15 -376 0 -473 53 -363 215 -731 461 -1047 166 -212 321 -318
486 -331 90 -6 162 9 299 64 270 109 477 107 725 -6 190 -87 344 -79 500 28
187 126 451 483 590 798 l23 53 -66 31 c-128 59 -235 151 -313 268 -238 357
-145 834 206 1062 l64 43 -33 41 c-77 95 -278 230 -407 273 -89 31 -177 42
-290 38 -131 -4 -204 -21 -400 -91 -134 -49 -136 -49 -255 -48 -118 1 -123 2
-290 56 -93 31 -186 60 -205 64 -19 4 -42 9 -50 12 -41 10 -231 8 -285 -3z"/>
</g>
</svg>
